<svg width="24" height="24" viewBox="0 0 24 24" fill="none" xmlns="http://www.w3.org/2000/svg">
<path fill-rule="evenodd" clip-rule="evenodd" d="M15.8787 1.70729C17.0503 0.535722 18.9497 0.535718 20.1213 1.70729L22.2929 3.87886C23.4645 5.05043 23.4645 6.94993 22.2929 8.1215L8.29289 22.1215C7.73028 22.6841 6.96722 23.0001 6.17157 23.0001H2C1.44772 23.0001 1 22.5524 1 22.0001V17.8286C1 17.0329 1.31607 16.2699 1.87868 15.7073L15.8787 1.70729ZM18.7071 3.1215C18.3166 2.73098 17.6834 2.73098 17.2929 3.1215L15.4142 5.00018L19 8.58597L20.8787 6.70729C21.2692 6.31677 21.2692 5.6836 20.8787 5.29308L18.7071 3.1215ZM17.5858 10.0002L14 6.4144L3.29289 17.1215C3.10536 17.309 3 17.5634 3 17.8286V21.0001H6.17157C6.43679 21.0001 6.69114 20.8948 6.87868 20.7072L17.5858 10.0002Z" fill="#E1B16A"/>
</svg>
