<svg width="45" height="45" viewBox="0 0 45 45" fill="none" xmlns="http://www.w3.org/2000/svg">
<g clip-path="url(#clip0_48822_110)">
<path d="M30.0806 26.25H14.9194C12.4553 26.253 10.0929 27.2332 8.35055 28.9755C6.60816 30.7179 5.62798 33.0803 5.625 35.5444V45H39.375V35.5444C39.372 33.0803 38.3918 30.7179 36.6495 28.9755C34.9071 27.2332 32.5447 26.253 30.0806 26.25Z" fill="#07575B"/>
<path d="M22.5 22.5C28.7132 22.5 33.75 17.4632 33.75 11.25C33.75 5.0368 28.7132 0 22.5 0C16.2868 0 11.25 5.0368 11.25 11.25C11.25 17.4632 16.2868 22.5 22.5 22.5Z" fill="#07575B"/>
</g>
<defs>
<clipPath id="clip0_48822_110">
<rect width="45" height="45" fill="white"/>
</clipPath>
</defs>
</svg>
